<svg xmlns="http://www.w3.org/2000/svg" viewBox="0 0 64 64" fill="none" stroke="#e9bd77" stroke-width="2.6" stroke-linecap="round" stroke-linejoin="round">
  <rect width="64" height="64" rx="10" fill="#16120e"/>
  <path d="M20 30 C20 18 26 10 32 10 C38 10 44 18 44 30" />
  <circle cx="26" cy="27" r="2.4" fill="#e9bd77" stroke="none"/>
  <circle cx="38" cy="27" r="2.4" fill="#e9bd77" stroke="none"/>
  <path d="M32 30 L32 40 M28 40 L32 46 L36 40" />
  <path d="M20 30 L18 34 M44 30 L46 34" />
  <path d="M22 16 C18 10 14 6 8 4 M18 12 L11 10 M20 9 L14 6" />
  <path d="M42 16 C46 10 50 6 56 4 M46 12 L53 10 M44 9 L50 6" />
</svg>
